# This file uses centimeters as units for non-parametric coordinates.

mtllib lightstrip.mtl
g default
v 0.373146 0.200891 -5.387266
v 0.142529 0.282806 -5.387266
v -0.142529 0.282805 -5.387266
v -0.373146 0.200891 -5.387266
v -0.461234 0.076685 -5.387266
v -0.373146 0.001866 -5.387266
v -0.142529 0.001865 -5.387266
v 0.142529 0.001865 -5.387266
v 0.373146 0.001866 -5.387266
v 0.461234 0.076685 -5.387266
v 0.303846 0.190016 5.409530
v 0.116059 0.256717 5.409530
v 0.116059 0.027953 5.409530
v 0.303846 0.027954 5.409530
v 0.375574 0.088878 5.409530
v -0.000000 0.076685 -5.464023
v -0.000000 0.088878 5.467339
v 0.432364 0.399839 -5.159395
v 0.809017 0.269289 -5.159395
v 1.000000 -0.000000 -5.159395
v 0.809017 -0.162215 -5.159395
v 0.309017 -0.162218 -5.159395
v -0.309017 -0.162218 -5.159395
v -0.809017 -0.162215 -5.159395
v -1.000000 -0.000000 -5.159395
v -0.809017 0.269289 -5.159395
v -0.370691 0.423364 -5.159395
v 0.432364 0.399839 5.210144
v 0.809017 0.269289 5.210144
v 1.000000 0.000000 5.210144
v 0.809017 -0.162215 5.210144
v 0.309017 -0.162218 5.210144
v -0.000000 0.256717 5.409530
v -0.000000 0.027953 5.409530
v -0.000000 0.088878 5.467339
v -0.000000 0.088878 5.467339
v 0.000000 -0.162218 -5.159395
v -0.000000 0.446888 -5.159395
v -0.000000 -0.162218 5.210144
v -0.000000 0.446888 5.210144
v -0.303846 0.190016 5.409530
v -0.116059 0.256717 5.409530
v -0.116059 0.027953 5.409530
v -0.303846 0.027954 5.409530
v -0.375574 0.088878 5.409530
v -0.809017 0.269289 -5.159395
v -0.432364 0.399839 5.210144
v -0.809017 0.269289 5.210144
v -1.000000 -0.000000 -5.159395
v -1.000000 0.000000 5.210144
v -0.809017 -0.162215 -5.159395
v -0.809017 -0.162215 5.210144
v -0.309017 -0.162218 5.210144
vt 0.217322 0.971068
vt 0.197162 0.971068
vt 0.878056 0.940423
vt 0.255423 0.951149
vt 0.172244 0.971068
vt 0.814756 0.940423
vt 0.841141 0.940423
vt 0.152085 0.971068
vt 0.772066 0.940423
vt 0.144385 0.971068
vt 0.755759 0.940423
vt 0.152085 0.971068
vt 0.113984 0.951149
vt 0.172244 0.971068
vt 0.157691 0.951149
vt 0.197162 0.971068
vt 0.211716 0.951149
vt 0.184703 0.951149
vt 0.217322 0.971068
vt 0.255423 0.951149
vt 0.225022 0.971068
vt 0.272118 0.951149
vt 0.184703 0.977778
vt 0.867083 0.038035
vt 0.851050 0.038035
vt 0.184703 0.022222
vt 0.184703 0.022222
vt 0.841141 0.038035
vt 0.194849 0.027276
vt 0.211264 0.027276
vt 0.184703 0.022222
vt 0.873208 0.038035
vt 0.878056 0.055059
vt 0.910215 0.055059
vt 0.926522 0.055059
vt 0.255423 0.044705
vt 0.211716 0.044705
vt 0.841141 0.055059
vt 0.184703 0.027276
vt 0.184703 0.044705
vt 0.815198 0.038035
vt 0.831231 0.038035
vt 0.174558 0.027276
vt 0.815198 0.038035
vt 0.809074 0.038035
vt 0.113984 0.951149
vt 0.772066 0.055059
vt 0.804225 0.055059
vt 0.804225 0.940423
vt 0.097289 0.951149
vt 0.755759 0.055059
vt 0.113984 0.951149
vt 0.113984 0.044705
vt 0.157691 0.951149
vt 0.157691 0.044705
vt 0.772066 0.055059
vt 0.158143 0.027276
vt 0.097289 0.044705
vt 0.755759 0.055059
vt 0.151873 0.027276
vt 0.809074 0.038035
vt 0.113984 0.044705
vt 0.772066 0.055059
vt 0.158143 0.027276
vt 0.815198 0.038035
vt 0.146909 0.044705
vt 0.804225 0.055059
vt 0.804225 0.055059
vt 0.174558 0.027276
vt 0.831231 0.038035
vt 0.841141 0.055059
vt 0.841141 0.055059
vt 0.841141 0.055059
vt 0.841141 0.940423
vt 0.841141 0.940423
vt 0.146909 0.951149
vt 0.841141 0.038035
vt 0.841141 0.038035
vt 0.184703 0.027276
vt 0.878056 0.940423
vt 0.222498 0.951149
vt 0.878056 0.940423
vt 0.841141 0.033099
vt 0.222498 0.044705
vt 0.878056 0.055059
vt 0.878056 0.055059
vt 0.926522 0.055059
vt 0.272118 0.044705
vt 0.910215 0.055059
vt 0.867083 0.038035
vt 0.910215 0.055059
vt 0.255423 0.044705
vt 0.217534 0.027276
vt 0.873208 0.038035
vt 0.211264 0.027276
vt 0.867083 0.038035
vt 0.194849 0.027276
vt 0.851050 0.038035
vt 0.851050 0.038035
vt 0.814756 0.940423
vt 0.772066 0.940423
vt 0.755759 0.940423
vt 0.772066 0.940423
vt 0.926522 0.940423
vt 0.926522 0.940423
vt 0.910215 0.940423
vt 0.910215 0.940423
vt 0.910215 0.940423
vt 0.880521 0.959879
vt 0.880521 0.959879
vt 0.873000 0.959879
vt 0.809281 0.959879
vt 0.801760 0.959879
vt 0.801760 0.959879
vt 0.809281 0.959879
vt 0.809281 0.959879
vt 0.828971 0.959879
vt 0.828971 0.959879
vt 0.853310 0.959879
vt 0.853310 0.959879
vt 0.873000 0.959879
vt 0.873000 0.959879
vn 0.244257 0.698142 -0.673006
vn 0.244257 0.698142 -0.673006
vn 0.327468 0.944554 -0.024155
vn 0.327501 0.944837 -0.005064
vn 0.017879 0.826985 -0.561939
vn 0.017879 0.826985 -0.561939
vn 0.017879 0.826985 -0.561939
vn 0.014300 0.999744 -0.017519
vn 0.107425 0.994195 -0.005951
vn -0.245185 0.695009 -0.675905
vn -0.245185 0.695009 -0.675905
vn -0.245185 0.695009 -0.675905
vn -0.245185 0.695009 -0.675905
vn -0.407519 0.289017 -0.866255
vn -0.407519 0.289017 -0.866255
vn -0.407519 0.289017 -0.866255
vn -0.407519 0.289017 -0.866255
vn -0.316119 -0.372183 -0.872667
vn -0.316119 -0.372183 -0.872667
vn -0.316119 -0.372183 -0.872668
vn -0.316119 -0.372183 -0.872667
vn -0.000006 -0.811505 -0.584346
vn -0.000006 -0.811505 -0.584346
vn -0.000006 -0.811505 -0.584346
vn -0.000006 -0.811505 -0.584346
vn 0.000000 -0.811507 -0.584343
vn 0.000000 -0.811507 -0.584343
vn 0.000000 -0.999934 -0.011449
vn 0.000000 -0.999749 -0.022397
vn 0.000000 -0.811507 -0.584343
vn 0.000006 -0.811505 -0.584346
vn 0.000006 -0.811504 -0.584346
vn 0.000007 -0.999996 -0.002700
vn 0.000007 -0.999857 -0.016896
vn 0.316119 -0.372185 -0.872667
vn 0.316119 -0.372185 -0.872667
vn 0.647292 -0.762088 -0.015346
vn 0.646922 -0.761653 -0.037102
vn 0.407519 0.289017 -0.866255
vn 0.407519 0.289017 -0.866255
vn 0.815180 0.578135 -0.035228
vn 0.815603 0.578435 -0.014317
vn 0.066181 0.307700 -0.949179
vn 0.146593 0.162590 -0.975743
vn -0.000000 -0.026156 -0.999658
vn -0.066181 0.307703 -0.949178
vn -0.146593 0.162591 -0.975743
vn -0.164122 0.021076 -0.986215
vn -0.153345 -0.222867 -0.962713
vn -0.000004 -0.716076 -0.698023
vn 0.000004 -0.716080 -0.698018
vn 0.153346 -0.222858 -0.962714
vn 0.164122 0.021079 -0.986215
vn 0.136061 0.150903 0.979140
vn 0.074560 0.278278 0.957602
vn 0.000000 0.272932 0.962033
vn 0.000000 -0.010157 0.999948
vn 0.000000 0.325655 0.945489
vn 0.000005 -0.688312 0.725415
vn 0.142602 -0.207174 0.967855
vn 0.000000 -0.688313 0.725414
vn 0.152102 0.019535 0.988172
vn 0.327433 0.944523 0.025764
vn 0.327496 0.944837 0.005434
vn 0.815079 0.578063 0.038583
vn 0.815587 0.578423 0.015626
vn 0.647277 -0.762070 0.016752
vn 0.646833 -0.761548 0.040638
vn 0.000007 -0.999996 0.002920
vn 0.000007 -0.999828 0.018551
vn 0.013939 0.999843 0.010942
vn 0.108086 0.994135 0.003755
vn 0.210567 0.602542 0.769808
vn 0.210567 0.602542 0.769808
vn 0.325634 0.230942 0.916858
vn 0.325634 0.230942 0.916858
vn 0.251924 -0.296603 0.921174
vn 0.251924 -0.296603 0.921174
vn 0.000005 -0.723629 0.690189
vn 0.000005 -0.723629 0.690189
vn -0.000000 0.741875 0.670538
vn 0.063518 0.740377 0.669184
vn 0.000000 -0.688314 0.725413
vn 0.000000 -0.999923 0.012448
vn 0.000000 -0.999980 0.006264
vn 0.000000 -0.723632 0.690186
vn 0.000000 -0.723631 0.690187
vn -0.136061 0.150902 0.979141
vn -0.074560 0.278274 0.957603
vn -0.000005 -0.688314 0.725413
vn -0.142602 -0.207175 0.967855
vn -0.152102 0.019535 0.988172
vn -0.329712 0.944082 0.000090
vn -0.329708 0.944069 0.005110
vn -0.329625 0.943823 0.023352
vn -0.329712 0.944082 0.000090
vn -0.815687 0.578494 -0.000000
vn -0.815587 0.578423 0.015626
vn -0.815079 0.578063 0.038583
vn -0.815687 0.578494 -0.000000
vn -0.647368 -0.762177 0.000000
vn -0.646833 -0.761548 0.040638
vn -0.647277 -0.762070 0.016752
vn -0.647368 -0.762177 0.000000
vn -0.000007 -1.000000 0.000000
vn -0.000007 -0.999828 0.018551
vn -0.000007 -0.999996 0.002920
vn -0.000007 -1.000000 0.000000
vn -0.087545 0.996160 0.000870
vn -0.087535 0.996149 0.005016
vn -0.210567 0.602541 0.769809
vn -0.210567 0.602541 0.769809
vn -0.325634 0.230942 0.916858
vn -0.325634 0.230942 0.916858
vn -0.251924 -0.296603 0.921174
vn -0.251924 -0.296603 0.921174
vn -0.000005 -0.723630 0.690189
vn -0.000005 -0.723630 0.690189
vn -0.063518 0.740377 0.669184
vn 0.000000 -0.999980 0.006264
vn 0.000000 -1.000000 0.000000
vn 0.000000 -0.723632 0.690186
s 1
g lightstrip
usemtl initialShadingGroup
f 1/122/1 2/119/2 18/80/3 19/107/4
s 2
f 2/120/5 3/117/6 27/100/7 38/7/8 18/3/9
s off
f 3/118/10 4/115/11 26/101/12 27/6/13
f 4/116/14 5/113/15 25/102/16 26/9/17
f 5/114/18 6/112/19 24/103/20 25/11/21
f 6/12/22 7/14/23 23/15/24 24/13/25
s 3
f 7/14/26 8/16/27 22/17/28 37/18/29 23/15/30
s 4
f 8/16/31 9/19/32 21/20/33 22/17/34
s 5
f 9/111/35 10/109/36 20/105/37 21/106/38
s 6
f 10/110/39 1/121/40 19/108/41 20/104/42
s 7
f 2/2/43 1/1/44 16/23/45
f 3/5/46 2/2/43 16/23/45
f 4/8/47 3/5/46 16/23/45
f 5/10/48 4/8/47 16/23/45
f 6/12/49 5/10/48 16/23/45
f 7/14/50 6/12/49 16/23/45
f 8/16/51 7/14/50 16/23/45
f 9/19/52 8/16/51 16/23/45
f 10/21/53 9/19/52 16/23/45
f 1/1/44 10/21/53 16/23/45
s 8
f 11/95/54 12/97/55 35/26/56 17/27/57
f 12/98/55 33/78/58 35/83/56
f 13/29/59 14/30/60 17/27/57 36/31/61
f 14/30/60 15/93/62 17/27/57
f 15/93/62 11/95/54 17/27/57
s 1
f 19/4/4 18/81/3 28/84/63 29/92/64
s 6
f 20/22/42 19/4/41 29/92/65 30/88/66
s 5
f 21/20/38 20/22/37 30/88/67 31/36/68
s 4
f 22/17/34 21/20/33 31/36/69 32/37/70
s 2
f 18/82/9 38/74/8 40/71/71 28/33/72
s 1
f 29/91/64 28/85/63 12/25/73 11/96/74
s 6
f 30/87/66 29/34/65 11/24/75 15/94/76
s 5
f 31/89/68 30/35/67 15/32/77 14/90/78
s 4
f 32/37/70 31/36/69 14/30/79 13/29/80
s 2
f 28/86/72 40/72/71 33/77/81 12/99/82
s 8
f 36/31/61 34/39/83 13/29/59
s 3
f 39/40/84 37/18/29 22/17/28 32/37/85
f 34/39/86 39/40/84 32/37/85 13/29/87
s 8
f 41/64/88 17/27/57 35/26/56 42/69/89
f 42/69/89 35/26/56 33/79/58
f 43/43/90 36/31/61 17/27/57 44/57/91
f 44/57/91 17/27/57 45/60/92
f 45/60/92 17/27/57 41/64/88
s 10
f 46/46/93 48/62/94 47/66/95 27/76/96
s 11
f 49/50/97 50/58/98 48/62/99 46/46/100
s 12
f 51/52/101 52/53/102 50/58/103 49/50/104
s 13
f 23/54/105 53/55/106 52/53/107 51/52/108
s 2
f 27/49/109 47/67/110 40/38/71 38/75/8
s 10
f 48/63/94 41/41/111 42/70/112 47/48/95
s 11
f 50/59/98 45/45/113 41/65/114 48/47/99
s 12
f 52/56/102 44/44/115 45/61/116 50/51/103
s 13
f 53/55/106 43/43/117 44/57/118 52/53/107
s 2
f 47/68/110 42/42/119 33/28/81 40/73/71
s 8
f 36/31/61 43/43/90 34/39/83
s 3
f 39/40/84 53/55/120 23/54/121 37/18/29
f 34/39/86 43/43/122 53/55/120 39/40/84
